<svg width="521" height="135" viewBox="0 0 521 135" fill="none" xmlns="http://www.w3.org/2000/svg">
<rect width="521" height="135" fill="white"/>
<path fill-rule="evenodd" clip-rule="evenodd" d="M69 117C96.6142 117 119 94.6142 119 67C119 39.3858 96.6142 17 69 17C41.3858 17 19 39.3858 19 67C19 94.6142 41.3858 117 69 117ZM69.5618 94.5281C85.0754 94.5281 97.6517 81.9518 97.6517 66.4382C97.6517 50.9246 85.0754 38.3483 69.5618 38.3483C54.0482 38.3483 41.4719 50.9246 41.4719 66.4382C41.4719 81.9518 54.0482 94.5281 69.5618 94.5281Z" fill="#6772E5"/>
<path d="M139.304 83.496L146.576 81.48C146.72 83.16 147.416 84.576 148.664 85.728C149.912 86.88 151.592 87.456 153.704 87.456C155.336 87.456 156.608 87.072 157.52 86.304C158.48 85.536 158.96 84.576 158.96 83.424C158.96 81.408 157.592 80.112 154.856 79.536L149.672 78.384C146.648 77.712 144.32 76.464 142.688 74.64C141.056 72.816 140.24 70.656 140.24 68.16C140.24 65.088 141.488 62.448 143.984 60.24C146.48 57.984 149.528 56.856 153.128 56.856C155.432 56.856 157.472 57.192 159.248 57.864C161.024 58.536 162.392 59.424 163.352 60.528C164.36 61.584 165.128 62.616 165.656 63.624C166.184 64.632 166.52 65.64 166.664 66.648L159.608 68.664C159.416 67.32 158.792 66.12 157.736 65.064C156.728 63.96 155.192 63.408 153.128 63.408C151.688 63.408 150.488 63.816 149.528 64.632C148.568 65.4 148.088 66.336 148.088 67.44C148.088 69.408 149.264 70.632 151.616 71.112L156.944 72.192C160.208 72.912 162.704 74.208 164.432 76.08C166.16 77.952 167.024 80.208 167.024 82.848C167.024 85.776 165.848 88.392 163.496 90.696C161.192 92.952 157.952 94.08 153.776 94.08C151.376 94.08 149.216 93.72 147.296 93C145.424 92.28 143.936 91.368 142.832 90.264C141.776 89.112 140.936 87.984 140.312 86.88C139.736 85.728 139.4 84.6 139.304 83.496ZM183.658 72.408V93H175.306V40.872H183.658V61.32C185.914 58.392 189.25 56.928 193.666 56.928C197.794 56.928 200.962 58.224 203.17 60.816C205.378 63.408 206.482 66.744 206.482 70.824V93H198.13V72.264C198.13 69.912 197.554 68.04 196.402 66.648C195.25 65.208 193.426 64.488 190.93 64.488C188.722 64.488 186.97 65.232 185.674 66.72C184.426 68.208 183.754 70.104 183.658 72.408ZM222.482 71.616H239.69C239.594 69.408 238.802 67.56 237.314 66.072C235.874 64.584 233.786 63.84 231.05 63.84C228.554 63.84 226.538 64.632 225.002 66.216C223.466 67.752 222.626 69.552 222.482 71.616ZM240.626 80.76L247.682 82.992C246.674 86.208 244.778 88.872 241.994 90.984C239.258 93.048 235.874 94.08 231.842 94.08C226.85 94.08 222.602 92.376 219.098 88.968C215.642 85.56 213.914 81 213.914 75.288C213.914 69.912 215.594 65.496 218.954 62.04C222.362 58.584 226.37 56.856 230.978 56.856C236.354 56.856 240.554 58.512 243.578 61.824C246.602 65.088 248.114 69.504 248.114 75.072C248.114 76.56 248.042 77.448 247.898 77.736H222.266C222.362 80.376 223.322 82.56 225.146 84.288C227.018 86.016 229.25 86.88 231.842 86.88C236.354 86.88 239.282 84.84 240.626 80.76ZM261.927 71.616H279.135C279.039 69.408 278.247 67.56 276.759 66.072C275.319 64.584 273.231 63.84 270.495 63.84C267.999 63.84 265.983 64.632 264.447 66.216C262.911 67.752 262.071 69.552 261.927 71.616ZM280.071 80.76L287.127 82.992C286.119 86.208 284.223 88.872 281.439 90.984C278.703 93.048 275.319 94.08 271.287 94.08C266.295 94.08 262.047 92.376 258.543 88.968C255.087 85.56 253.359 81 253.359 75.288C253.359 69.912 255.039 65.496 258.399 62.04C261.807 58.584 265.815 56.856 270.423 56.856C275.799 56.856 279.999 58.512 283.023 61.824C286.047 65.088 287.559 69.504 287.559 75.072C287.559 76.56 287.487 77.448 287.343 77.736H261.711C261.807 80.376 262.767 82.56 264.591 84.288C266.463 86.016 268.695 86.88 271.287 86.88C275.799 86.88 278.727 84.84 280.071 80.76ZM306.125 47.208V57.936H313.397V65.352H306.125V81.624C306.125 83.16 306.485 84.288 307.205 85.008C307.925 85.68 309.053 86.016 310.589 86.016C311.549 86.016 312.509 85.92 313.469 85.728V92.64C312.221 93.168 310.517 93.432 308.357 93.432C305.093 93.432 302.525 92.52 300.653 90.696C298.781 88.824 297.845 86.256 297.845 82.992V65.352H291.365V57.936H293.165C294.941 57.936 296.285 57.432 297.197 56.424C298.109 55.416 298.565 54.096 298.565 52.464V47.208H306.125Z" fill="#333333"/>
<path d="M330.118 93H321.838V57.936H329.83V62.4C330.79 60.672 332.23 59.328 334.15 58.368C336.118 57.408 338.134 56.928 340.198 56.928C342.55 56.928 344.662 57.456 346.534 58.512C348.406 59.568 349.798 61.104 350.71 63.12C353.158 58.992 356.95 56.928 362.086 56.928C365.542 56.928 368.47 58.056 370.87 60.312C373.27 62.568 374.47 65.88 374.47 70.248V93H366.406V71.616C366.406 69.456 365.83 67.728 364.678 66.432C363.574 65.088 361.894 64.416 359.638 64.416C357.478 64.416 355.726 65.16 354.382 66.648C353.038 68.136 352.366 69.984 352.366 72.192V93H344.158V71.616C344.158 69.456 343.582 67.728 342.43 66.432C341.326 65.088 339.646 64.416 337.39 64.416C335.182 64.416 333.406 65.16 332.062 66.648C330.766 68.088 330.118 69.936 330.118 72.192V93ZM390.529 71.616H407.737C407.641 69.408 406.849 67.56 405.361 66.072C403.921 64.584 401.833 63.84 399.097 63.84C396.601 63.84 394.585 64.632 393.049 66.216C391.513 67.752 390.673 69.552 390.529 71.616ZM408.673 80.76L415.729 82.992C414.721 86.208 412.825 88.872 410.041 90.984C407.305 93.048 403.921 94.08 399.889 94.08C394.897 94.08 390.649 92.376 387.145 88.968C383.689 85.56 381.961 81 381.961 75.288C381.961 69.912 383.641 65.496 387.001 62.04C390.409 58.584 394.417 56.856 399.025 56.856C404.401 56.856 408.601 58.512 411.625 61.824C414.649 65.088 416.161 69.504 416.161 75.072C416.161 76.56 416.089 77.448 415.945 77.736H390.313C390.409 80.376 391.369 82.56 393.193 84.288C395.065 86.016 397.297 86.88 399.889 86.88C404.401 86.88 407.329 84.84 408.673 80.76ZM434.726 47.208V57.936H441.998V65.352H434.726V81.624C434.726 83.16 435.086 84.288 435.806 85.008C436.526 85.68 437.654 86.016 439.19 86.016C440.15 86.016 441.11 85.92 442.07 85.728V92.64C440.822 93.168 439.118 93.432 436.958 93.432C433.694 93.432 431.126 92.52 429.254 90.696C427.382 88.824 426.446 86.256 426.446 82.992V65.352H419.966V57.936H421.766C423.542 57.936 424.886 57.432 425.798 56.424C426.71 55.416 427.166 54.096 427.166 52.464V47.208H434.726ZM448.49 83.496C448.49 80.52 449.45 78.144 451.37 76.368C453.338 74.544 455.906 73.392 459.074 72.912L468.074 71.544C469.802 71.304 470.666 70.464 470.666 69.024C470.666 67.44 470.114 66.168 469.01 65.208C467.906 64.2 466.25 63.696 464.042 63.696C461.93 63.696 460.25 64.296 459.002 65.496C457.754 66.648 457.034 68.16 456.842 70.032L449.21 68.304C449.546 65.136 451.058 62.448 453.746 60.24C456.434 57.984 459.842 56.856 463.97 56.856C469.058 56.856 472.802 58.08 475.202 60.528C477.65 62.976 478.874 66.12 478.874 69.96V87.384C478.874 89.688 479.018 91.56 479.306 93H471.53C471.29 92.28 471.17 90.792 471.17 88.536C468.866 92.232 465.266 94.08 460.37 94.08C456.818 94.08 453.938 93.048 451.73 90.984C449.57 88.872 448.49 86.376 448.49 83.496ZM461.954 87.528C464.546 87.528 466.634 86.832 468.218 85.44C469.85 84 470.666 81.672 470.666 78.456V76.872L461.522 78.24C458.402 78.768 456.842 80.352 456.842 82.992C456.842 84.24 457.298 85.32 458.21 86.232C459.122 87.096 460.37 87.528 461.954 87.528ZM497.322 93H488.97V40.872H497.322V93Z" fill="#6772E5"/>
</svg>
